# xmcd
#
# Track frame offsets:
#   150
#   16110
#   37376
#   55464
#   70926
#   88564
#   106608
#   123492
#   139992
#
# Disc length: 2147 seconds
#
# Revision: 0
# Processed by: cddbd v1.5.2PL0 Copyright (c) Steve Scherf et al.
# Submitted via: GXTranscoder 2.0.1939
#
DISCID=7b086109
DTITLE=Shakira and Carlos Santana - Oral Fixation, Vol. 2
DYEAR=2007
DGENRE=R and B
TTITLE0=breb
TTITLE1=bvresab
TTITLE2=aerg
TTITLE3=vreav
TTITLE4=Illegal (featuring Carlos Santana)
TTITLE5=vawv
TTITLE6=vreavb
TTITLE7=vbaebr
TTITLE8=bvreab
EXTD=
EXTT0=
EXTT1=
EXTT2=
EXTT3=
EXTT4=
EXTT5=
EXTT6=
EXTT7=
EXTT8=
PLAYORDER=
